<mxfile host="app.diagrams.net" agent="Mozilla/5.0 (Windows NT 10.0; Win64; x64) AppleWebKit/537.36 (KHTML, like Gecko) Chrome/131.0.0.0 Safari/537.36" version="26.0.4">
  <diagram name="Страница 1" id="EJyrCcS6uFucR8JQZMF4">
    <mxGraphModel dx="2074" dy="1106" grid="1" gridSize="10" guides="1" tooltips="1" connect="1" arrows="1" fold="1" page="1" pageScale="1" pageWidth="827" pageHeight="1169" background="#ffffff" math="0" shadow="0">
      <root>
        <mxCell id="0" />
        <mxCell id="1" parent="0" />
        <mxCell id="KCrV5Hso9-v8olrJHeTe-1" value="Class &#xa;animals" style="swimlane;fontStyle=0;childLayout=stackLayout;horizontal=1;startSize=40;fillColor=none;horizontalStack=0;resizeParent=1;resizeParentMax=0;resizeLast=0;collapsible=1;marginBottom=0;" parent="1" vertex="1">
          <mxGeometry x="290" y="50" width="140" height="62" as="geometry" />
        </mxCell>
        <mxCell id="KCrV5Hso9-v8olrJHeTe-2" value="Class &#xa;home_animals&#xa;" style="swimlane;fontStyle=0;childLayout=stackLayout;horizontal=1;startSize=50;fillColor=none;horizontalStack=0;resizeParent=1;resizeParentMax=0;resizeLast=0;collapsible=1;marginBottom=0;" parent="1" vertex="1">
          <mxGeometry x="90" y="190" width="140" height="72" as="geometry" />
        </mxCell>
        <mxCell id="KCrV5Hso9-v8olrJHeTe-3" value="Class&#xa;pack_animals" style="swimlane;fontStyle=0;childLayout=stackLayout;horizontal=1;startSize=50;fillColor=none;horizontalStack=0;resizeParent=1;resizeParentMax=0;resizeLast=0;collapsible=1;marginBottom=0;" parent="1" vertex="1">
          <mxGeometry x="488" y="190" width="140" height="72" as="geometry" />
        </mxCell>
        <mxCell id="KCrV5Hso9-v8olrJHeTe-6" value="Class&#xa; Dog" style="swimlane;fontStyle=0;childLayout=stackLayout;horizontal=1;startSize=28;fillColor=none;horizontalStack=0;resizeParent=1;resizeParentMax=0;resizeLast=0;collapsible=1;marginBottom=0;" parent="1" vertex="1">
          <mxGeometry x="30" y="331" width="80" height="60" as="geometry" />
        </mxCell>
        <mxCell id="KCrV5Hso9-v8olrJHeTe-7" value="Class&#xa; Cat" style="swimlane;fontStyle=0;childLayout=stackLayout;horizontal=1;startSize=26;fillColor=none;horizontalStack=0;resizeParent=1;resizeParentMax=0;resizeLast=0;collapsible=1;marginBottom=0;" parent="1" vertex="1">
          <mxGeometry x="120" y="331" width="80" height="60" as="geometry" />
        </mxCell>
        <mxCell id="KCrV5Hso9-v8olrJHeTe-8" value="Class&#xa; Hamster" style="swimlane;fontStyle=0;childLayout=stackLayout;horizontal=1;startSize=26;fillColor=none;horizontalStack=0;resizeParent=1;resizeParentMax=0;resizeLast=0;collapsible=1;marginBottom=0;" parent="1" vertex="1">
          <mxGeometry x="220" y="331" width="80" height="60" as="geometry" />
        </mxCell>
        <mxCell id="KCrV5Hso9-v8olrJHeTe-10" value="Class&#xa; Camel" style="swimlane;fontStyle=0;childLayout=stackLayout;horizontal=1;startSize=26;fillColor=none;horizontalStack=0;resizeParent=1;resizeParentMax=0;resizeLast=0;collapsible=1;marginBottom=0;" parent="1" vertex="1">
          <mxGeometry x="518" y="330" width="80" height="62" as="geometry" />
        </mxCell>
        <mxCell id="KCrV5Hso9-v8olrJHeTe-11" value="Class&#xa; Donkey" style="swimlane;fontStyle=0;childLayout=stackLayout;horizontal=1;startSize=26;fillColor=none;horizontalStack=0;resizeParent=1;resizeParentMax=0;resizeLast=0;collapsible=1;marginBottom=0;" parent="1" vertex="1">
          <mxGeometry x="628" y="330" width="80" height="62" as="geometry" />
        </mxCell>
        <mxCell id="KCrV5Hso9-v8olrJHeTe-12" value="Class&#xa; Horse" style="swimlane;fontStyle=0;childLayout=stackLayout;horizontal=1;startSize=30;fillColor=none;horizontalStack=0;resizeParent=1;resizeParentMax=0;resizeLast=0;collapsible=1;marginBottom=0;" parent="1" vertex="1">
          <mxGeometry x="414" y="330" width="80" height="62" as="geometry" />
        </mxCell>
        <mxCell id="KCrV5Hso9-v8olrJHeTe-18" value="" style="edgeStyle=none;orthogonalLoop=1;jettySize=auto;html=1;rounded=0;" parent="1" edge="1">
          <mxGeometry width="100" relative="1" as="geometry">
            <mxPoint x="70" y="331" as="sourcePoint" />
            <mxPoint x="130" y="262" as="targetPoint" />
            <Array as="points" />
          </mxGeometry>
        </mxCell>
        <mxCell id="KCrV5Hso9-v8olrJHeTe-20" value="" style="endArrow=classic;html=1;rounded=0;entryX=0.5;entryY=1;entryDx=0;entryDy=0;" parent="1" target="KCrV5Hso9-v8olrJHeTe-2" edge="1">
          <mxGeometry width="50" height="50" relative="1" as="geometry">
            <mxPoint x="160" y="330" as="sourcePoint" />
            <mxPoint x="210" y="280" as="targetPoint" />
          </mxGeometry>
        </mxCell>
        <mxCell id="KCrV5Hso9-v8olrJHeTe-21" value="" style="endArrow=classic;html=1;rounded=0;" parent="1" edge="1">
          <mxGeometry width="50" height="50" relative="1" as="geometry">
            <mxPoint x="260" y="331" as="sourcePoint" />
            <mxPoint x="200" y="262" as="targetPoint" />
          </mxGeometry>
        </mxCell>
        <mxCell id="KCrV5Hso9-v8olrJHeTe-22" value="" style="endArrow=classic;html=1;rounded=0;entryX=0.5;entryY=1;entryDx=0;entryDy=0;" parent="1" edge="1">
          <mxGeometry width="50" height="50" relative="1" as="geometry">
            <mxPoint x="562" y="330" as="sourcePoint" />
            <mxPoint x="562" y="262" as="targetPoint" />
          </mxGeometry>
        </mxCell>
        <mxCell id="KCrV5Hso9-v8olrJHeTe-23" value="" style="endArrow=classic;html=1;rounded=0;entryX=0.75;entryY=1;entryDx=0;entryDy=0;" parent="1" target="KCrV5Hso9-v8olrJHeTe-3" edge="1">
          <mxGeometry width="50" height="50" relative="1" as="geometry">
            <mxPoint x="667.76" y="330" as="sourcePoint" />
            <mxPoint x="667.76" y="262" as="targetPoint" />
          </mxGeometry>
        </mxCell>
        <mxCell id="KCrV5Hso9-v8olrJHeTe-24" value="" style="endArrow=classic;html=1;rounded=0;entryX=0.25;entryY=1;entryDx=0;entryDy=0;exitX=0.5;exitY=0;exitDx=0;exitDy=0;" parent="1" source="KCrV5Hso9-v8olrJHeTe-12" target="KCrV5Hso9-v8olrJHeTe-3" edge="1">
          <mxGeometry width="50" height="50" relative="1" as="geometry">
            <mxPoint x="453.76" y="333" as="sourcePoint" />
            <mxPoint x="453.76" y="265" as="targetPoint" />
          </mxGeometry>
        </mxCell>
        <mxCell id="ZROetQ3qqK54u34V_L-R-1" value="" style="endArrow=classic;html=1;rounded=0;" edge="1" parent="1">
          <mxGeometry width="50" height="50" relative="1" as="geometry">
            <mxPoint x="160" y="190" as="sourcePoint" />
            <mxPoint x="340" y="110" as="targetPoint" />
            <Array as="points">
              <mxPoint x="160" y="160" />
              <mxPoint x="340" y="160" />
            </Array>
          </mxGeometry>
        </mxCell>
        <mxCell id="ZROetQ3qqK54u34V_L-R-2" value="" style="endArrow=classic;html=1;rounded=0;" edge="1" parent="1">
          <mxGeometry width="50" height="50" relative="1" as="geometry">
            <mxPoint x="560" y="190" as="sourcePoint" />
            <mxPoint x="380" y="110" as="targetPoint" />
            <Array as="points">
              <mxPoint x="560" y="160" />
              <mxPoint x="380" y="160" />
            </Array>
          </mxGeometry>
        </mxCell>
      </root>
    </mxGraphModel>
  </diagram>
</mxfile>
